<svg width="71" height="71" viewBox="0 0 71 71" fill="none" xmlns="http://www.w3.org/2000/svg">
<path d="M59.7872 10.8158C66.232 17.2607 70.2339 26.0455 70.2339 35.5144C70.2339 45.0833 66.232 53.6743 59.7872 60.1161C53.3423 66.5578 44.6544 70.4659 35.1855 70.4659C25.6166 70.4659 17.0255 66.5609 10.5838 60.1161C4.14204 53.6712 0.233887 45.0801 0.233887 35.5144C0.233887 26.0455 4.13892 17.2576 10.5838 10.8158C17.0286 4.3741 25.6197 0.465942 35.1855 0.465942C44.6544 0.465942 53.3454 4.37097 59.7872 10.8158ZM39.1873 55.2363H39.3842C39.6778 55.2363 39.9715 55.3332 40.1652 55.6268C40.362 55.8236 40.5557 56.0173 40.9462 56.0173C41.043 56.0173 41.143 55.9205 41.143 55.7237C41.143 55.3332 41.2398 54.9427 41.2398 54.8458C41.3367 54.5522 41.5335 54.5522 41.7272 54.5522C41.824 54.5522 41.824 54.5522 41.824 54.3554L41.6272 54.1585C41.5304 54.1585 41.4304 54.2554 41.4304 54.3554C41.3335 54.4522 41.2336 54.5522 41.1367 54.3554L40.5494 54.7459L39.8653 54.549L38.6937 52.7902L39.0842 50.2504C39.0842 50.1535 38.9874 49.9567 38.6937 49.8599C38.4001 49.763 38.4001 49.5662 38.4969 49.4694C38.1064 49.2726 37.6191 49.0789 37.0318 49.0789C36.9349 49.0789 36.6413 49.1757 36.1539 49.2757C35.6666 49.2757 35.3729 49.2757 35.3729 49.0789C35.3729 48.7852 35.6666 48.201 35.8603 47.5169C35.9571 47.2232 36.0571 46.7359 36.1539 46.539C36.1539 46.3422 36.2508 46.1485 36.2508 46.1485L36.7381 44.977L36.6413 44.7802L35.9571 44.6834C35.7603 44.6834 35.0792 45.0739 34.5888 45.4644C34.1014 46.0517 33.7109 46.539 33.7109 46.9295L31.7584 47.3201C31.3679 47.3201 30.9774 47.2232 30.6837 46.8327C30.5869 46.3454 30.2932 45.758 29.9027 45.1738C29.5122 44.6865 29.4154 44.196 29.4154 43.7087C29.4154 43.1214 29.5122 42.3404 29.7091 41.853C29.9059 41.2657 29.9059 40.5847 29.5122 39.9973C29.6091 39.9973 29.9027 39.8005 29.7091 39.6068L30.1964 39.0195L30.2932 38.9227L30.3901 39.0195C30.7806 38.7259 31.4648 38.629 32.0489 38.7259C32.7331 38.8227 33.1236 38.529 33.3173 38.0417L34.0015 38.7259C34.1983 38.8227 34.5888 38.1385 34.5888 37.9449L34.2951 37.748L36.0539 37.3575L36.1508 37.5544H36.9318L37.9096 38.1417C38.0065 38.1417 38.1064 38.0448 38.2033 37.9449C38.4001 37.748 38.4969 37.748 38.5938 37.848L39.4716 38.8258C39.3748 39.0226 39.3748 39.2163 39.3748 39.4131C39.4716 39.51 39.5716 39.61 39.5716 39.7068C39.5716 40.0973 40.4494 41.8561 40.9399 41.8561C41.2336 41.8561 41.3304 41.6593 41.2336 41.2688V40.4878C41.2336 40.0005 41.1367 39.4132 40.9399 38.829C40.6463 38.3416 40.4526 37.6574 40.2558 37.0701V36.8733C40.2558 36.5797 40.4526 36.286 40.8431 36.0923C41.1367 35.8955 41.3304 35.7018 41.3304 35.7018C41.6241 35.505 41.9177 35.2145 42.3082 35.0176C42.6019 34.8208 42.8956 34.3335 43.0892 34.0398L43.3829 33.3557V32.9652H43.6766C43.6766 32.9652 43.8734 32.8683 43.8734 32.6715C43.8734 32.6715 43.7765 32.5747 43.6766 32.5747C43.5797 32.4778 43.2861 32.281 43.0892 32.0873L43.2861 31.8905C43.5797 31.5968 43.6766 30.9127 43.4829 30.6221L44.2639 30.2316C44.0671 30.6221 44.6544 30.719 44.8512 30.6221L45.2417 29.7443C45.0449 29.2569 44.948 29.7443 45.2417 29.157C45.5354 29.0601 45.829 28.9602 46.1195 28.7665C46.4132 28.6696 46.6069 28.5697 46.9006 28.5697C46.9974 28.5697 47.0974 28.6665 47.0974 28.6665C47.2942 28.6665 47.391 28.5697 47.391 28.5697C47.391 28.276 47.2942 28.0823 47.1942 28.0823L47.6816 27.0077C48.0721 27.0077 48.4626 26.8108 48.6594 26.4203L49.4404 26.3235C49.6372 26.3235 49.734 26.2266 49.734 26.0298V25.833L51.1992 25.4425L51.396 24.9552L51.0055 24.3678C51.0055 24.3678 51.1024 24.271 51.1024 24.171C51.1024 24.0711 51.0055 23.9742 50.9056 23.8774C50.8087 23.8774 50.7087 23.7805 50.6119 23.7805C50.515 23.6837 50.4151 23.5837 50.3182 23.5837H51.0992C51.0992 23.5837 51.4897 23.4869 51.4897 23.1932C51.4897 22.8027 51.2929 22.7059 50.9024 22.7059C49.8278 22.7059 48.1689 23.0964 47.5816 24.2679L46.9943 24.5615L47.7753 23.7805L47.8721 23.5837C47.8721 23.4869 47.7753 23.3869 47.5785 23.2901H47.2848C48.2626 23.2901 48.8468 22.9964 49.2373 22.7027C49.531 22.4091 49.8246 22.1154 50.5057 21.9217C51.1898 22.0186 51.874 22.0186 52.555 22.0186C53.1424 21.9217 53.7265 21.9217 54.4107 21.9217C54.7044 21.7249 55.0949 21.3344 55.2886 20.9439L56.2664 20.8471C56.4632 21.0439 57.1442 20.5534 57.1442 20.2598C57.1442 19.9661 57.0474 19.8693 56.7537 19.7724C56.4601 19.6756 56.1664 19.4788 56.1664 19.1851V18.8914C56.2633 18.7946 56.1664 18.6946 56.0696 18.6946C55.6791 18.6946 54.7012 19.182 54.4107 19.3788C54.2139 19.5756 54.117 19.2819 54.117 19.0851L54.2139 19.182L54.6044 18.9852L55.5822 18.5947L55.6791 18.4978C55.6791 18.1073 55.0917 18.0105 54.8981 18.0105C54.8012 18.0105 54.6044 18.1073 54.4107 18.2073C54.2139 18.2073 54.0202 18.2073 54.0202 18.0105L54.117 17.8136C53.4329 17.3263 52.8487 16.3485 52.8487 16.0548V15.6643C52.9455 15.5675 52.8487 15.5675 52.6519 15.5675H52.3582C52.2614 15.6643 52.1614 15.5675 52.1614 15.3707C52.1614 15.1738 51.7709 14.1023 51.2836 14.1023L50.9899 14.396C50.9899 14.5928 50.8931 14.6896 50.6962 14.7865C50.4994 14.8833 50.4026 14.9833 50.4026 15.0801H50.3057L49.3279 15.6674C49.3279 15.4706 49.2311 15.4706 49.1311 15.5706C49.0343 15.5706 49.0343 15.6674 48.8374 15.6674H48.6406C49.128 15.6674 49.0311 14.9833 48.6406 14.9833L47.8596 15.0801C47.6628 15.0801 47.6628 15.0801 47.8596 14.8833C47.9565 14.6865 48.1533 14.4928 47.9565 14.296C47.9565 14.0992 47.8596 14.0992 47.7597 14.1992L47.9565 13.9055C48.1533 13.8086 47.8596 13.4181 47.6628 13.2213L46.785 13.1245L46.1977 12.5372C46.1008 12.634 46.0008 12.5372 45.8071 12.4403C45.7103 12.3435 45.5135 12.1467 45.4166 12.1467L44.7325 12.4403L42.9737 12.0498C42.7768 12.0498 42.4863 12.1467 42.4863 12.4403C42.4863 12.5372 42.4863 12.6371 42.5832 12.6371C42.78 12.734 42.78 12.834 42.78 12.9308C42.78 13.0276 42.8768 13.4181 42.9768 13.9086C42.9768 14.396 42.9768 14.5928 42.6831 14.4959L42.2926 15.0832C42.2926 15.2801 42.4894 15.3769 42.5863 15.3769C42.8799 15.5737 43.1736 15.8643 43.3673 16.1579C43.5641 16.3547 43.5641 16.6453 43.4641 16.9389L41.6085 18.4041V18.5009C41.6085 18.7946 41.6085 18.9883 41.7053 19.1851C41.9021 19.3819 41.9021 19.6724 42.0958 19.9661C42.5832 20.1629 42.5832 20.3566 42.1927 20.5534C41.9958 20.5534 41.8021 20.6503 41.6053 20.7502L41.4085 20.947C41.4085 21.0439 41.3117 21.0439 41.2117 21.0439H40.7244C40.7244 21.0439 40.7244 20.947 40.8212 20.947C40.8212 20.947 40.918 20.8502 40.918 20.7502L40.0402 20.2629L39.6497 19.5787C39.7465 19.2851 39.7465 19.0914 39.6497 18.9914C39.5529 18.8914 39.5529 18.6977 39.5529 18.5041C39.5529 18.3104 39.356 17.8199 38.9655 17.8199C38.4782 17.8199 38.0877 17.9167 37.5972 18.0167C37.794 17.9199 37.4004 17.4294 37.3036 17.4294C36.8162 17.4294 36.2289 17.2326 35.5447 16.8421C34.8606 16.4516 34.3732 16.2548 33.9827 16.2548C33.6891 16.2548 33.1049 16.3516 32.7144 16.5484C32.9112 16.4516 32.9112 16.3516 33.008 16.0611L32.4207 15.0832L32.3239 14.9864C32.127 14.9864 31.9334 15.0832 31.7365 15.2801C31.5397 15.3769 31.2492 15.2801 31.2492 14.8896C31.2492 14.7927 31.346 14.6927 31.346 14.6927C31.4429 14.5959 31.4429 14.5959 31.346 14.4959C31.346 14.2023 31.4429 13.9086 31.7365 13.6181C31.9334 13.4213 32.0302 13.0308 32.127 12.7402C32.3239 12.6434 32.3239 12.5434 32.3239 12.4466C32.3239 12.2498 32.4207 12.2498 32.5207 12.2498C32.7175 12.2498 33.008 12.1529 33.2048 12.0529C33.4016 11.8561 33.5953 11.7593 33.889 11.7593L33.9858 11.4656C33.9858 11.3688 33.6922 11.2688 33.108 11.172C32.4238 11.0751 32.1302 11.0751 32.1302 10.8783L32.227 10.7815C32.8143 10.9783 33.3017 11.0751 33.5953 11.0751C34.1827 11.172 34.4732 10.9783 35.0605 10.6846C35.2573 10.5878 35.8415 10.391 36.3289 10.0973C36.3289 10.0005 36.232 10.0005 35.9384 9.90049H36.3289L37.013 9.50999V9.11949L36.8162 8.92267L37.794 8.72586C37.6972 8.52905 37.8909 8.4322 37.9908 8.4322C38.1877 8.4322 38.3813 8.52905 38.5782 8.72586C38.775 8.92268 38.8718 8.92267 38.9687 8.92267L39.8465 8.62902C39.8465 8.53217 39.9434 8.53217 40.1402 8.53217C40.337 8.43533 40.4338 8.33536 40.337 8.23851L39.6528 7.55435C39.456 7.55435 39.3592 7.26069 39.556 7.26069C39.8496 7.26069 40.0433 7.16385 39.8496 6.87019C39.6528 6.77335 39.3623 6.57653 39.0686 6.47969C38.775 6.28287 38.4813 6.18603 38.1908 6.18603C37.994 6.18603 37.6035 6.28287 37.6035 6.57653C37.6035 6.77335 37.7003 6.77335 37.8003 6.77335C37.9971 6.77335 38.0939 6.87019 38.0939 6.97016C38.2907 7.067 38.1908 7.16697 37.9971 7.16697H37.8003C37.6035 7.16697 37.3129 7.36379 37.1161 7.75429C36.9193 8.04795 36.6288 8.34161 36.3351 8.43845C36.2383 8.43845 36.2383 8.43845 36.2383 8.34161C36.3351 8.24476 36.2383 8.24476 36.2383 8.14479C36.1414 8.04795 36.0414 7.94798 35.9446 7.94798C35.7478 7.85113 35.5541 7.85113 35.5541 7.75117C35.5541 7.55435 35.7509 7.45751 35.9446 7.16385C36.0414 6.87019 35.7478 6.77335 35.2604 6.77335C35.0636 6.77335 34.8699 6.87019 34.7731 7.067C34.6762 7.16385 34.5763 7.36066 34.4794 7.55435L33.5016 6.47969L32.7206 6.38284C32.7206 6.18603 32.8175 5.99234 32.9174 5.79553C33.1142 5.40502 32.3301 4.91768 32.0396 4.62402C31.9427 4.62402 31.7459 4.52717 31.5522 4.52717C31.4554 4.52717 30.8681 5.01452 30.4776 5.21133C30.2807 5.30818 30.1839 5.40815 30.1839 5.50499C30.1839 5.70181 30.3807 5.70181 30.6713 5.70181H30.5744C30.3776 5.70181 30.2807 5.79865 30.2807 6.09231C30.2807 6.18915 31.0618 6.38597 31.2586 6.38597C31.4554 6.38597 31.6491 6.38597 31.6491 6.48281C31.7459 6.57966 31.7459 6.57966 31.9427 6.57966L32.2364 6.48281V6.67963L32.1395 6.87644L32.2364 7.1701L31.2586 7.65745L31.1617 7.75429C31.0649 7.75429 30.9649 7.75429 30.9649 7.85113C30.9649 7.94798 30.9649 8.14479 31.1617 8.33848C31.2586 8.5353 31.1617 8.63214 30.6744 8.63214L30.3807 8.43533C30.3807 8.23851 30.1839 8.04482 29.6966 7.84801C28.8187 7.55435 27.2567 7.45751 25.8884 7.45751C25.2042 7.36066 24.7169 7.36066 24.3264 7.36066L22.8612 7.84801L23.2517 8.62902C23.1549 8.62902 22.958 8.72586 22.958 8.72586C22.5675 8.4322 21.9802 7.84801 21.7865 7.84801L21.1024 7.75117C18.953 7.84801 16.4163 9.90049 13.9765 12.3404C11.5366 14.7802 9.38728 17.5137 8.31261 19.1757H8.50943C8.70624 19.1757 8.80308 19.0789 9.09674 18.9789C9.29356 18.8821 9.3904 19.0758 9.3904 19.3694C9.3904 19.5662 9.3904 19.6631 9.29356 19.8568C9.19671 20.0504 9.3904 20.1504 9.7809 20.1504C9.87775 20.1504 9.97772 20.0536 9.97772 19.8568C10.0746 19.6599 10.0746 19.6599 10.0746 19.8568L10.2714 20.5409V20.6378C10.2714 20.7346 10.1745 20.8346 10.0746 20.9314C9.7809 21.0283 10.0746 21.3219 10.3682 21.3219H10.8556L11.0524 21.2251L11.1492 21.1282C11.1492 21.5187 11.5397 21.6156 11.8334 21.6156H11.9302C11.9302 21.6156 11.8334 21.8124 11.7334 21.9092C11.5366 21.9092 11.5366 22.0061 11.7334 22.1061L12.7112 22.3029V22.3997L13.2986 23.6681C13.2986 23.8649 13.1017 24.3522 12.9081 24.3522C12.7144 24.3522 12.7112 24.2554 12.7112 24.1554C12.8081 24.1554 12.8081 24.0586 12.8081 23.8618C12.8081 23.7649 12.7112 23.6649 12.7112 23.5681C12.6144 23.4713 12.4176 23.4713 12.0271 23.4713C11.9302 23.4713 11.6366 23.4713 11.8303 23.7649L12.3176 24.8396L12.5144 25.0364C11.9271 25.0364 11.8303 26.9889 11.8303 27.5762L11.9271 28.3572L12.024 28.6509V28.7477L11.9271 29.6256L13.0986 31.5781H13.3923C13.3923 31.6749 13.3923 31.7749 13.2954 31.8718C13.1986 31.9686 13.1986 32.0686 13.1986 32.2623L13.5891 32.5559C13.5891 33.1432 13.7859 33.2401 14.2733 33.7274C14.2733 34.0211 14.6638 34.4116 15.2511 34.8021C15.9352 35.0957 16.3257 35.2894 16.5194 35.3894C16.9099 36.7577 17.5941 38.2198 18.5688 39.1007L18.6656 39.6881L18.4688 39.8849C18.272 39.8849 18.272 39.9817 18.372 40.0817L19.153 40.4722C19.3498 40.2754 19.4466 40.4722 19.6403 40.7658C19.8371 41.1564 19.934 41.3532 20.0308 41.45V41.7437L20.5182 42.4278L20.715 42.6246L20.9118 42.1373C20.715 41.65 20.034 40.5753 19.4466 39.6974C19.153 39.2101 18.8593 38.7196 18.5688 38.3291C18.372 38.0355 18.2751 37.8418 18.2751 37.7418C18.2751 37.6418 18.1783 36.5703 18.0783 36.3735C18.1752 36.4703 18.4688 36.5703 18.6656 36.6671C18.9593 36.764 19.2529 36.8639 19.4466 36.9608C19.5435 37.7418 19.8371 38.3291 20.3245 38.8165C20.715 39.207 21.1055 39.6943 21.3991 40.2816C21.2023 40.4784 21.596 40.4784 21.7897 40.4784C21.8865 40.6753 21.8865 40.7721 21.8865 41.1626C22.7643 42.0405 24.5232 44.0929 24.5232 44.9708V45.0676L24.3264 45.6549C24.7169 46.5328 25.5947 47.217 26.4757 47.5106H26.6725C27.1598 47.8043 27.844 48.0979 28.5282 48.3885C29.1155 48.779 29.6997 49.0726 30.287 49.2663L31.2648 48.679C31.7522 48.7758 32.3395 49.2663 33.0236 49.8505C33.7078 50.4347 34.5857 51.1189 35.7572 51.3157C36.1477 51.022 36.3445 51.1189 36.3445 51.5125V51.7093L37.4191 52.9777L37.616 53.565C38.2033 53.9555 38.8843 54.5428 39.178 55.2238L39.1873 55.2363ZM26.5944 6.1298L26.4976 5.93298C26.3007 5.83614 25.8134 5.63932 25.6197 5.63932C25.5229 5.63932 25.326 5.73617 24.9355 5.83614C24.2514 6.22664 23.1767 6.5203 22.3957 6.9108C22.0052 7.10762 21.7116 7.20446 21.5179 7.20446C21.9084 7.20446 22.2989 7.10762 22.6894 6.9108C22.983 6.71399 23.3735 6.61715 23.764 6.61715L24.0577 6.81396C24.2545 6.9108 24.3514 6.9108 24.545 6.9108C24.6419 6.9108 24.7419 6.9108 24.9355 7.10762C25.1324 7.01077 25.326 7.01077 25.6197 7.20446L25.9134 7.00765V6.61715L25.8165 6.42033L26.0133 6.51718C26.2101 6.51718 26.4038 6.42033 26.6006 6.12667L26.5944 6.1298ZM41.3335 63.3369L41.4304 63.9242C41.4304 64.1211 41.3335 64.1211 41.2336 64.3147C40.9399 64.5116 40.4526 64.8021 40.4526 65.3894C40.4526 65.4863 40.5494 65.5862 40.5494 65.7799C40.6463 65.8768 40.7462 65.9767 40.7462 66.1704C40.7462 66.2673 40.6494 66.3672 40.6494 66.4641C47.3848 65.2926 53.4391 62.0717 58.1252 57.092H58.0283C57.8315 57.1888 57.541 57.1888 57.441 57.092L57.1474 57.1888L56.66 57.092H56.3663C56.1695 56.7983 55.9758 56.6047 55.6822 56.4078L55.5853 56.311C55.4885 56.311 55.3885 56.311 55.3885 56.5078C55.3885 55.63 54.7044 54.8489 53.9234 54.8489C53.9234 54.9458 53.8265 54.9458 53.8265 54.9458H53.6297L53.4329 54.8489H53.7265L53.9234 54.2616L53.436 53.968L53.3392 54.0648C52.9487 53.968 52.655 53.7712 52.4613 53.3807L52.1677 53.2838V53.3807L51.9708 53.4775C51.5803 53.5743 51.2867 53.6743 51.093 53.7712C50.7025 53.6743 50.4088 53.4775 50.312 53.3807L49.1405 53.4775C49.1405 53.087 48.9437 52.5997 48.4563 52.5997C47.869 52.5997 47.088 52.5997 46.8943 53.2838C46.8943 53.4806 46.9912 53.7712 47.0911 53.8711V54.2616L46.9943 54.4584L46.8974 54.5553H46.8006L46.5069 53.8711L46.8006 53.4806C46.7037 53.2838 46.7037 53.187 46.7037 52.9933C46.7037 52.7996 46.6069 52.6996 46.6069 52.5059L46.5101 52.4091H46.2164L45.6291 52.7996H45.2386L45.1417 52.9964C45.0449 52.9964 45.0449 53.0933 45.0449 53.1932C45.0449 53.1932 44.948 53.1932 44.948 53.2901L44.8512 53.1932H44.4607C44.2639 53.39 44.167 53.6806 44.0702 53.9742L44.267 54.171L43.7797 54.3679L43.6828 54.5647L43.3892 54.7615V54.8583H43.2923V55.3457H43.1955C43.0986 54.9552 42.805 54.5647 42.2176 54.271H41.924V54.4678C41.924 54.6646 42.1208 54.7615 42.3145 54.8583C42.5113 55.0551 42.6081 55.2488 42.705 55.3457C42.6081 55.2488 42.4113 55.3457 42.4113 55.4425V55.6393L42.9987 56.5172V58.176L43.1955 58.5665C42.9986 59.0539 42.805 59.5444 42.5113 59.8349V59.738L42.3145 59.8349L42.2176 59.9317L42.1208 60.3222L42.2176 60.4191V60.5159L42.0208 60.3191L41.924 60.9064L41.4366 61.1032C41.2398 61.2001 41.143 61.3001 41.2398 61.5906C41.2398 61.7874 41.143 61.8843 40.9462 61.9811L41.043 62.1779L40.8462 62.4716C40.8462 62.5684 40.8462 62.6684 40.7494 62.6684V63.0589L40.8462 63.743L41.043 63.8399L41.2398 63.743L41.3335 63.3369Z" fill="#DF6126"/>
<path d="M20.9006 13.4659L20.7339 13.6326H20.2339L20.0672 13.7993H19.9006L19.7339 13.9659H19.5672L19.4006 14.1326H19.2339L18.2339 15.1326V15.2993L17.9006 15.6326V15.7993L17.7339 15.9659V16.1326L17.5672 16.2993V16.4659L17.4006 16.6326V17.2993L17.2339 17.4659V18.6326L17.4006 18.7993V19.7993L17.5672 19.9659V20.4659L17.7339 20.6326V20.9659L17.9006 21.1326V21.4659L18.0672 21.6326V21.7993L18.2339 21.9659V22.2993L18.4006 22.4659V22.6326L18.5672 22.7993V22.9659L18.7339 23.1326V23.2993L18.9006 23.4659V23.6326L19.2339 23.9659V24.1326L19.4006 24.2993V24.4659L19.7339 24.7993V24.9659L20.0672 25.2993V25.4659L20.4006 25.7993V25.9659L20.9006 26.4659V26.6326L21.2339 26.9659L20.9006 27.2993H20.5672L20.4006 27.4659H20.2339L20.0672 27.6326H19.9006L18.9006 28.6326V28.7993L18.7339 28.9659V29.2993L18.5672 29.4659V31.1326L18.7339 31.2993V31.6326L18.9006 31.7993V31.9659L19.4006 32.4659V32.6326H19.5672L20.0672 33.1326H20.2339L20.4006 33.2993H20.7339L20.9006 33.4659H22.7339L22.9006 33.2993H23.2339L23.4006 33.1326H23.5672L24.0672 32.6326H24.2339V32.4659L24.7339 31.9659H25.4006L25.5672 31.7993H26.2339L26.4006 31.6326H27.2339L27.4006 31.4659H28.2339L28.4006 31.2993H29.2339L29.4006 31.1326H30.2339L30.4006 30.9659H31.2339L31.4006 30.7993H32.2339L32.4006 30.6326H33.0672L33.2339 30.4659H34.0672L34.2339 30.2993L35.7339 31.7993V31.9659L36.9006 33.1326V33.2993L41.0672 37.4659H41.2339L41.4006 37.6326V37.7993L46.4006 42.7993V42.9659L47.4006 43.9659V44.1326L48.7339 45.4659V46.1326L48.9006 46.2993V46.7993L49.0672 46.9659V47.1326L49.2339 47.2993V47.4659L49.7339 47.9659V48.1326H49.9006L50.2339 48.4659H50.4006L50.7339 48.7993H51.2339L51.4006 48.9659H52.7339L52.9006 48.7993H53.4006L53.7339 48.4659H53.9006L54.0672 48.2993H54.2339L54.7339 47.7993V47.6326L55.0672 47.2993V46.9659L55.2339 46.7993V46.1326L55.4006 45.9659V45.2993L55.2339 45.1326V44.6326L55.0672 44.4659V44.2993L54.9006 44.1326V43.9659L53.9006 42.9659H53.7339L53.5672 42.7993H53.4006L53.2339 42.6326H52.7339L52.5672 42.4659V42.1326L53.0672 41.6326V41.4659L53.4006 41.1326V40.9659L53.7339 40.6326V40.4659L54.0672 40.1326V39.9659L54.4006 39.6326V39.4659L54.5672 39.2993V39.1326L54.7339 38.9659V38.7993L54.9006 38.6326V38.4659L55.0672 38.2993V38.1326L55.2339 37.9659V37.7993L55.4006 37.6326V37.4659L55.5672 37.2993V36.7993L55.7339 36.6326V36.1326L55.9006 35.9659V35.4659L56.0672 35.2993V34.4659L56.2339 34.2993V33.4659L56.0672 33.2993V32.4659L55.9006 32.2993V31.9659L55.7339 31.7993V31.6326L55.5672 31.4659V31.1326L55.2339 30.7993V30.6326L54.2339 29.6326H54.0672L53.9006 29.4659H53.7339L53.5672 29.2993H53.4006L53.2339 29.1326H50.9006L50.7339 29.2993H50.5672L50.4006 29.4659H50.2339L50.0672 29.6326H49.9006L48.7339 30.7993V30.9659L48.4006 31.2993V31.4659L48.2339 31.6326V31.7993L48.0672 31.9659V32.4659L47.9006 32.6326V35.1326L48.0672 35.2993V35.7993L48.2339 35.9659V36.2993L48.4006 36.4659V36.7993L48.5672 36.9659V37.1326L48.7339 37.2993V37.6326L48.9006 37.7993V37.9659L49.0672 38.1326V38.2993L49.2339 38.4659V38.6326L49.4006 38.7993V38.9659L49.5672 39.1326V39.2993L49.9006 39.6326V39.7993L50.0672 39.9659V40.1326L50.4006 40.4659V40.6326L50.7339 40.9659V41.1326L51.0672 41.4659V41.6326L51.5672 42.1326V42.2993L51.7339 42.4659L51.5672 42.6326H51.0672L50.9006 42.7993H50.5672L50.2339 43.1326H50.0672L49.5672 43.6326H49.4006L46.2339 40.4659V40.2993L40.7339 34.7993V34.6326L35.5672 29.4659V29.2993L34.9006 28.6326H34.2339L34.0672 28.7993H33.2339L33.0672 28.9659H32.2339L32.0672 29.1326H31.2339L31.0672 29.2993H30.2339L30.0672 29.4659H29.4006L29.2339 29.6326H28.4006L28.2339 29.7993H27.5672L27.4006 29.9659H26.5672L26.4006 30.1326H25.5672L25.4006 30.2993H25.2339L25.0672 30.1326V29.4659L24.9006 29.2993V28.9659L24.7339 28.7993V28.6326L23.5672 27.4659H23.4006L23.2339 27.2993H22.9006L22.7339 27.1326H21.9006L21.7339 26.9659L22.2339 26.4659V26.2993L22.5672 25.9659V25.7993L22.9006 25.4659V25.2993L23.2339 24.9659V24.7993L23.5672 24.4659V24.2993L23.7339 24.1326V23.9659L24.0672 23.6326V23.4659L24.2339 23.2993V23.1326L24.4006 22.9659V22.7993L24.5672 22.6326V22.4659L24.7339 22.2993V22.1326L24.9006 21.9659V21.6326L25.0672 21.4659V21.2993L25.2339 21.1326V20.6326L25.4006 20.4659V20.1326L25.5672 19.9659V19.1326L25.7339 18.9659V17.4659L25.5672 17.2993V16.4659L25.4006 16.2993V16.1326L25.2339 15.9659V15.7993L24.9006 15.4659V15.2993L23.7339 14.1326H23.5672L23.4006 13.9659H23.2339L23.0672 13.7993H22.9006L22.7339 13.6326H22.2339L22.0672 13.4659H20.9006Z" fill="#FEE39E"/>
<ellipse cx="21.4838" cy="17.8826" rx="2.25" ry="2.25" fill="#100F0F"/>
<ellipse cx="52.1506" cy="33.3826" rx="2.25" ry="2.25" fill="#100F0F"/>
<ellipse cx="21.9839" cy="30.3826" rx="1.41667" ry="1.41667" fill="#100F0F"/>
<ellipse cx="52.1506" cy="45.8826" rx="1.41667" ry="1.41667" fill="#100F0F"/>
</svg>
